<?xml version="1.0" encoding="utf-8"?>
<svg version="1.1" xmlns="http://www.w3.org/2000/svg"
     xmlns:xlink="http://www.w3.org/1999/xlink"
     x="0px" y="0px"
     viewBox="0 0 1280 1280"
     style="enable-background:new 0 0 1280 1280;"
     xml:space="preserve"
     id="blendb-logo">
  <style type="text/css">
    #base #structure {
      fill: #231f20;
      stroke: #453f40;
      stroke-width: 0.25;
      stroke-miterlimit: 10;
    }
    #base #text-blen {
      fill: #cfd6d3;
    }
    #base #text-db {
      fill: #ce242b;
    }
    #glass {
      fill: #a4c3db;
      opacity: 0.5;
    }
    #lid {
      fill: #231f20;
    }
    #opening .top {
      fill: #cfd6d3;
    }
    #opening .side {
      fill: #abadb0;
    }
  </style>
  <g>
    <g id="base">
      <g id="structure">
        <polygon points="640.4,600.6 316.8,787.4 638.3,974.2 961.8,787.4"/>
        <polygon points="639,1223.1 317.5,1036.3 316.8,787.4 638.3,974.2"/>
        <polygon points="962.5,1036.3 639,1223.1 638.3,974.2 961.8,787.4"/>
      </g>
      <g id="text-blen">
        <path d="M441.5,963c8.7,5,15.1,9.2,19,12.6c4,3.4,6.8,6.3,8.5,8.7c3.8,5.4,5.7,11.5,5.7,18.3c0,5-2.7,8.2-8.1,9.6
          c6.9,7.5,10.3,15.9,10.3,25.4c0,7.4-2.4,11.5-7.3,12.3c-4.8,0.8-12.1-1.4-21.7-6.6l-31.6-18.3l-1.1-9.9c1-0.7,3-0.7,6.1-0.1
          v-50.7c-3-2.9-5.1-5.3-6.1-7.3l1.1-8.6L441.5,963z M443.1,976l-5.8-3.3v19.2l9.1,5.3c3.8,2.2,6.7,2.9,8.7,2.1c2-0.8,3-2.5,3-5.3
          c0-2.8-0.7-5.3-2.1-7.5c-1.4-2.2-3-4-4.9-5.4C449.2,979.7,446.6,978,443.1,976z M447.2,1009.7l-9.9-5.7v21.1l7.7,4.4
          c5,2.9,8.8,4.4,11.4,4.4c2.6,0,3.9-1.9,3.9-5.7s-1-7.2-3.1-10.1C455.2,1015.2,451.9,1012.4,447.2,1009.7z"/>
        <path d="M482.8,984.7c4.1,1.4,8,3.2,11.5,5.2c3.6,2.1,6.5,3.9,9,5.5v67.6c2.9,2.8,4.9,5.2,6.1,7.3l-1.1,7.9
          l-25.5-14.7l-1.1-9.2c1-0.8,3.1-0.9,6.1-0.2v-54.2c-2.6-2.4-4.6-4.8-6.1-7.3L482.8,984.7z"/>
        <path d="M540.6,1097.7c-8.9-5.1-15.6-11.4-20-18.7c-4.5-7.3-6.7-15.5-6.7-24.5c0-5.5,0.8-9.7,2.3-12.8
          c1.6-3.1,3.7-4.9,6.3-5.5c5.2-1.2,11.2,0.3,18.1,4.2c6.9,4,12.2,8.8,15.8,14.4c3.7,5.6,5.5,13,5.5,22.1c0,5.3-2.6,6.5-7.9,3.4
          l-24.1-13.9c0.3,4.8,1.5,8.8,3.6,12c2.1,3.1,5.5,6,10,8.7c2.5,1.5,4.9,2.5,7.2,3.3c2.3,0.7,4,1.1,5,1.1l1.6,0l3.3,10.8
          c-0.4,0.3-1.1,0.5-1.9,0.8c-0.9,0.3-3,0.1-6.4-0.6C548.9,1101.9,545,1100.3,540.6,1097.7z M547.6,1066.8c0.1-1,0.2-2.2,0.2-3.6
          c0-1.5-0.6-3.4-1.8-5.7c-1.2-2.3-3.2-4.4-6.2-6.1c-2.9-1.7-5.2-2.1-6.7-1.2c-1.6,0.9-2.6,3.3-3.1,7.2L547.6,1066.8z"/>
        <path d="M568.7,1057.6c4.1,1.5,7.7,3.1,11,5c3.3,1.9,6,3.5,8.1,4.9v5.5c1.8-0.5,4.3-0.3,7.4,0.4c3.1,0.8,6,2,8.8,3.6
          c7.3,4.2,12.3,8.8,15.3,13.9c2.9,5.1,4.4,11.8,4.4,20.2v21.3c2.9,2.8,4.9,5.2,6.1,7.3l-1.1,7.9l-25.5-14.7l-1.1-9.2
          c1-0.8,3.1-0.9,6.1-0.2v-22c0-4-0.6-7.1-1.9-9.2c-1.3-2.1-3.6-4.1-6.9-6.1c-3.3-1.9-6.7-2.7-10-2.2v28.5c2.9,2.8,4.9,5.2,6.1,7.3
          l-1.1,7.9l-25.5-14.7l-1.1-9.2c1-0.8,3.1-0.9,6.1-0.2v-30.9c-2.6-2.4-4.6-4.8-6.1-7.3L568.7,1057.6z"/>
      </g>
      <g id="text-db">
        <path d="M683.3,1127.8l-34.4,19.9l-1.3-10.4c1.2-2.2,3.6-5.1,7.4-8.7v-61.6c-3.7,0.8-6.2,0.7-7.4-0.3l1.3-12
          l30.1-17.4c14.5-8.4,26-10.9,34.4-7.8c8.5,3.2,12.7,12.6,12.7,28.3c0,15.7-3.8,29.4-11.5,41
          C706.9,1110.5,696.5,1120.2,683.3,1127.8z M674.4,1118.3l9.7-5.6c6.7-3.9,12.1-9,16-15.4c3.9-6.3,5.9-15.4,5.9-27.2
          c0-22.5-8.5-28.8-25.5-19l-6.1,3.5V1118.3z"/>
        <path d="M766.2,986.9c10.6-6.1,18.3-9.9,23.1-11.4c4.8-1.5,8.2-1.9,10.3-1.3c4.6,1.3,6.9,6.1,6.9,14.2
          c0,6.1-3.3,13.8-9.8,23.1c8.4-0.6,12.5,4.9,12.5,16.4c0,9-2.9,17.4-8.8,25.1c-5.9,7.8-14.7,15.2-26.4,22.4l-38.4,22.2l-1.3-10.4
          c1.2-2.2,3.6-5.1,7.4-8.7v-61.6c-3.7,0.8-6.2,0.7-7.4-0.3l1.3-12L766.2,986.9z M768.1,1000.5l-7,4v23.3l11.1-6.4
          c4.6-2.6,8.1-5.8,10.5-9.6c2.4-3.7,3.6-7.3,3.6-10.7c0-3.4-0.9-5.4-2.6-6.1c-1.7-0.7-3.7-0.6-5.9,0.3
          C775.5,996.4,772.3,998.1,768.1,1000.5z M773.1,1035.7l-12,6.9v25.6l9.3-5.4c6.1-3.5,10.7-7.1,13.9-10.7
          c3.1-3.6,4.7-7.8,4.7-12.4c0-4.7-1.2-7.3-3.7-8C782.8,1031.1,778.7,1032.4,773.1,1035.7z"/>
      </g>
    </g>
    <g id="glass">
      <polygon points="639.9,685.1 462.7,787.4 638.7,889.7 815.9,787.4"/>
      <polygon points="352.8,266.3 638.4,432.3 638.7,889.7 462.7,787.4"/>
      <polygon points="638.4,432.3 638.7,889.7 815.9,787.4 925.9,266.3"/>
      <polygon points="640.3,100.4 352.8,266.3 638.4,432.3 925.9,266.3"/>
    </g>
    <g id="lid">
      <polygon points="640.3,93.1 340.2,266.3 638.3,439.6 938.5,266.3"/>
      <polygon points="340.2,230.8 340.2,266.3 638.3,439.6 938.5,266.3 938.5,230.8 638.3,404.1"/>
      <polygon points="640.3,57.5 340.2,230.8 638.3,404.1 938.5,230.8"/>
    </g>
    <g id="opening">
      <path class="side" d="M717,230.8c0-23.2-35.3-42-78.8-42c-43.5,0-78.8,18.8-78.8,42c0,23.2,35.3,42,78.8,42
        C681.8,272.8,717,254,717,230.8"/>
      <path class="top" d="M717,219c0-23.2-35.3-42-78.8-42c-43.5,0-78.8,18.8-78.8,42c0,23.2,35.3,42,78.8,42
        C681.8,261,717,242.2,717,219"/>
    </g>
  </g>
</svg>
