<?xml version="1.0" encoding="utf-8"?>
<svg version="1.1" xmlns="http://www.w3.org/2000/svg"
     xmlns:xlink="http://www.w3.org/1999/xlink"
     x="0px" y="0px"
     viewBox="0 0 3320 1280"
     enable-background="new 0 0 3320 1280"
     xml:space="preserve"
     id="blendb-logo-wide">
  <style type="text/css">
    /* hide BlenDB text on the logo itself, comment this to show it */
    #base #text-blen, #base #text-db {
      display: none;
    }

    #base #structure .faces {
      fill: #231f20;
    }
    #base #structure .lines {
      fill: none;
      stroke: #453f40;
      stroke-width: 1;
      stroke-miterlimit: 10;
    }
    #base #text-blen {
      fill: #cfd6d3;
    }
    #base #text-db {
      fill: #ce242b;
    }
    #glass .bottom {
      fill: #a4c3db;
      opacity: 0.75;
    }
    #glass .sides {
      fill: #a4c3db;
      opacity: 0.5;
    }
    #glass .line {
      fill: none;
      stroke: #A4C3DB;
      stroke-width: 2;
      stroke-miterlimit: 10;
      stroke-opacity: 0.2;
    }
    #lid {
      fill: #231f20;
    }
    #opening .top {
      fill: #cfd6d3;
    }
    #opening .side {
      fill: #abadb0;
    }
    #type {
      fill: #231f20;
    }
    #type .highlight {
      fill: #ce242b;
    }
  </style>
  <g>
    <g id="logo">
      <g id="base">
        <g id="structure">
          <polygon class="faces" points="640,600 316,788 316,1036 640,1224 962,1036 962,788"/>
          <line class="lines" x1="316" y1="788" x2="640" y2="974"/>
          <line class="lines" x1="962" y1="788" x2="640" y2="974"/>
        </g>
        <g id="text-blen">
          <path d="M441.5,963c8.7,5,15.1,9.2,19,12.6c4,3.4,6.8,6.3,8.5,8.7c3.8,5.4,5.7,11.5,5.7,18.3c0,5-2.7,8.2-8.1,9.6
            c6.9,7.5,10.3,15.9,10.3,25.4c0,7.4-2.4,11.5-7.3,12.3c-4.8,0.8-12.1-1.4-21.7-6.6l-31.6-18.3l-1.1-9.9c1-0.7,3-0.7,6.1-0.1
            v-50.7c-3-2.9-5.1-5.3-6.1-7.3l1.1-8.6L441.5,963z M443.1,976l-5.8-3.3v19.2l9.1,5.3c3.8,2.2,6.7,2.9,8.7,2.1c2-0.8,3-2.5,3-5.3
            c0-2.8-0.7-5.3-2.1-7.5c-1.4-2.2-3-4-4.9-5.4C449.2,979.7,446.6,978,443.1,976z M447.2,1009.7l-9.9-5.7v21.1l7.7,4.4
            c5,2.9,8.8,4.4,11.4,4.4c2.6,0,3.9-1.9,3.9-5.7s-1-7.2-3.1-10.1C455.2,1015.2,451.9,1012.4,447.2,1009.7z"/>
          <path d="M482.8,984.7c4.1,1.4,8,3.2,11.5,5.2c3.6,2.1,6.5,3.9,9,5.5v67.6c2.9,2.8,4.9,5.2,6.1,7.3l-1.1,7.9
            l-25.5-14.7l-1.1-9.2c1-0.8,3.1-0.9,6.1-0.2v-54.2c-2.6-2.4-4.6-4.8-6.1-7.3L482.8,984.7z"/>
          <path d="M540.6,1097.7c-8.9-5.1-15.6-11.4-20-18.7c-4.5-7.3-6.7-15.5-6.7-24.5c0-5.5,0.8-9.7,2.3-12.8
            c1.6-3.1,3.7-4.9,6.3-5.5c5.2-1.2,11.2,0.3,18.1,4.2c6.9,4,12.2,8.8,15.8,14.4c3.7,5.6,5.5,13,5.5,22.1c0,5.3-2.6,6.5-7.9,3.4
            l-24.1-13.9c0.3,4.8,1.5,8.8,3.6,12c2.1,3.1,5.5,6,10,8.7c2.5,1.5,4.9,2.5,7.2,3.3c2.3,0.7,4,1.1,5,1.1l1.6,0l3.3,10.8
            c-0.4,0.3-1.1,0.5-1.9,0.8c-0.9,0.3-3,0.1-6.4-0.6C548.9,1101.9,545,1100.3,540.6,1097.7z M547.6,1066.8c0.1-1,0.2-2.2,0.2-3.6
            c0-1.5-0.6-3.4-1.8-5.7c-1.2-2.3-3.2-4.4-6.2-6.1c-2.9-1.7-5.2-2.1-6.7-1.2c-1.6,0.9-2.6,3.3-3.1,7.2L547.6,1066.8z"/>
          <path d="M568.7,1057.6c4.1,1.5,7.7,3.1,11,5c3.3,1.9,6,3.5,8.1,4.9v5.5c1.8-0.5,4.3-0.3,7.4,0.4c3.1,0.8,6,2,8.8,3.6
            c7.3,4.2,12.3,8.8,15.3,13.9c2.9,5.1,4.4,11.8,4.4,20.2v21.3c2.9,2.8,4.9,5.2,6.1,7.3l-1.1,7.9l-25.5-14.7l-1.1-9.2
            c1-0.8,3.1-0.9,6.1-0.2v-22c0-4-0.6-7.1-1.9-9.2c-1.3-2.1-3.6-4.1-6.9-6.1c-3.3-1.9-6.7-2.7-10-2.2v28.5c2.9,2.8,4.9,5.2,6.1,7.3
            l-1.1,7.9l-25.5-14.7l-1.1-9.2c1-0.8,3.1-0.9,6.1-0.2v-30.9c-2.6-2.4-4.6-4.8-6.1-7.3L568.7,1057.6z"/>
        </g>
        <g id="text-db">
          <path d="M683.3,1127.8l-34.4,19.9l-1.3-10.4c1.2-2.2,3.6-5.1,7.4-8.7v-61.6c-3.7,0.8-6.2,0.7-7.4-0.3l1.3-12
            l30.1-17.4c14.5-8.4,26-10.9,34.4-7.8c8.5,3.2,12.7,12.6,12.7,28.3c0,15.7-3.8,29.4-11.5,41
            C706.9,1110.5,696.5,1120.2,683.3,1127.8z M674.4,1118.3l9.7-5.6c6.7-3.9,12.1-9,16-15.4c3.9-6.3,5.9-15.4,5.9-27.2
            c0-22.5-8.5-28.8-25.5-19l-6.1,3.5V1118.3z"/>
          <path d="M766.2,986.9c10.6-6.1,18.3-9.9,23.1-11.4c4.8-1.5,8.2-1.9,10.3-1.3c4.6,1.3,6.9,6.1,6.9,14.2
            c0,6.1-3.3,13.8-9.8,23.1c8.4-0.6,12.5,4.9,12.5,16.4c0,9-2.9,17.4-8.8,25.1c-5.9,7.8-14.7,15.2-26.4,22.4l-38.4,22.2l-1.3-10.4
            c1.2-2.2,3.6-5.1,7.4-8.7v-61.6c-3.7,0.8-6.2,0.7-7.4-0.3l1.3-12L766.2,986.9z M768.1,1000.5l-7,4v23.3l11.1-6.4
            c4.6-2.6,8.1-5.8,10.5-9.6c2.4-3.7,3.6-7.3,3.6-10.7c0-3.4-0.9-5.4-2.6-6.1c-1.7-0.7-3.7-0.6-5.9,0.3
            C775.5,996.4,772.3,998.1,768.1,1000.5z M773.1,1035.7l-12,6.9v25.6l9.3-5.4c6.1-3.5,10.7-7.1,13.9-10.7
            c3.1-3.6,4.7-7.8,4.7-12.4c0-4.7-1.2-7.3-3.7-8C782.8,1031.1,778.7,1032.4,773.1,1035.7z"/>
        </g>
      </g>
      <g id="glass">
        <polygon class="bottom" points="640,686 462,788 638,890 814,788"/>
        <polygon class="sides" points="638,432 352,266 462,788 638,890 814,788 924,266"/>
        <line class="line" x1="638" y1="432" x2="638" y2="890"/>
      </g>
      <polygon id="lid" points="638,58 338,230 338,266 638,440 936,266 936,230"/>
      <g id="opening">
        <path class="side" d="M559.2,220v10c0,23.2,35.3,42,78.8,42c43.6,0,78.8-18.8,78.8-42v-10H559.2z"/>
        <path class="top" d="M716.8,220c0-23.2-35.3-42-78.8-42s-78.8,18.8-78.8,42s35.3,42,78.8,42C681.6,262,716.8,243.2,716.8,220"/>
      </g>
    </g>
    <g id="type">
      <path d="M1341.1,572.7c45.6,0,78.8,2.8,99.5,8.4c20.7,5.6,35.5,12.3,44.4,20c19.7,17,29.6,43.1,29.6,78.3
        c0,26.3-14.1,51.3-42.4,74.8c36,18.2,54,52,54,101.5c0,38.7-12.7,67.4-38,86.2c-25.3,18.8-63.2,29.1-113.4,31h-165.4l-5.8-48.2
        c5-6.6,15.7-13,31.9-19.1V640.5c-15.9-5.8-26.5-12.4-31.9-19.7l5.8-48.2H1341.1z M1349.2,635.9H1319v100.4h47.6
        c19.7,0,34.8-5,45.3-15.1c10.4-10.1,15.7-22.3,15.7-36.8s-3.7-25.4-11-32.8c-7.4-7.3-15.9-11.8-25.5-13.3
        C1381.3,636.7,1367.4,635.9,1349.2,635.9z M1370.7,799.5H1319v110.2h40c26.3,0,46.2-3.9,59.8-11.6c13.5-7.7,20.3-21.7,20.3-41.8
        c0-20.1-5.3-34.6-16-43.5C1412.5,804,1395,799.5,1370.7,799.5z"/>
      <path d="M1556.9,561.1c21.7-5,41.8-7.5,60.3-7.5s34.2,0.6,47,1.7v353.3c15.1,5.8,25.7,12.4,31.9,19.7l-5.8,44.7
        h-133.4l-5.8-44.7c5.4-7.3,16-13.9,31.9-19.7V625.5c-13.5-4.6-24.2-11.2-31.9-19.7L1556.9,561.1z"/>
      <path d="M1859.2,977.6c-46.4,0-81.3-12.4-104.7-37.1c-23.4-24.7-35.1-60.7-35.1-107.9c0-28.6,4.1-53.3,12.2-74
        c8.1-20.7,19.1-36.6,33.1-47.9c27.1-21.7,58.6-32.5,94.6-32.5c36,0,63.5,9.2,82.7,27.6c19.1,18.4,28.7,51.3,28.7,98.9
        c0,27.8-13.7,41.8-41.2,41.8h-125.9c1.5,24.4,7.8,41.6,18.9,51.6c11,10.1,28.5,15.1,52.5,15.1c13.1,0,25.7-1.5,37.7-4.6
        c12-3.1,20.7-6.2,26.1-9.3l8.1-4.6l17.4,46.4c-2.3,2.7-5.7,6.1-10.2,10.2c-4.5,4.1-15.7,9.5-33.7,16.2S1882,977.6,1859.2,977.6z
         M1895.7,794.9c0.8-5.4,1.2-12,1.2-19.7c0-7.7-3.1-16-9.3-24.7c-6.2-8.7-16.9-13.1-32.2-13.1c-15.3,0-27,4.6-35.1,13.9
        c-8.1,9.3-13.5,24.9-16.2,47L1895.7,794.9z"/>
      <path d="M2005.9,682.9c21.3-4.6,40.4-7,57.4-7c17,0,31.1,0.4,42.4,1.2v29c9.7-8.1,22.5-14.8,38.6-20
        c16-5.2,31.4-7.8,46.1-7.8c37.9,0,64.5,8.9,79.8,26.7c15.3,17.8,22.9,48.5,22.9,92.3v111.4c15.1,5.8,25.7,12.4,31.9,19.7
        l-5.8,44.7h-133.4l-5.8-44.7c5.4-7.3,16-13.9,31.9-19.7V793.7c0-20.9-3.4-34.9-10.2-42.1c-6.8-7.2-18.9-10.7-36.3-10.7
        c-17.4,0-34.8,6.2-52.2,18.6v149.1c15.1,5.8,25.7,12.4,31.9,19.7l-5.8,44.7h-133.4l-5.8-44.7c5.4-7.3,16-13.9,31.9-19.7V747.3
        c-13.5-4.6-24.2-11.2-31.9-19.7L2005.9,682.9z"/>
      <path class="highlight" d="M2502.6,973h-147.9l-5.8-48.2c5-6.6,15.7-13,31.9-19.1V640.5
        c-15.9-5.8-26.5-12.4-31.9-19.7l5.8-48.2H2484c62.3,0,111.7,17.4,148.2,52.2c36.6,34.8,54.8,86,54.8,153.5
        c0,67.5-16.5,116.8-49.6,147.9C2604.4,957.4,2559.4,973,2502.6,973z M2464.3,909.8h41.8c29,0,51.9-8.8,68.8-26.4
        c16.8-17.6,25.2-51.7,25.2-102.4c0-96.7-36.6-145-109.7-145h-26.1V909.8z"/>
      <path class="highlight" d="M2859.4,572.7c45.6,0,78.8,2.8,99.5,8.4c20.7,5.6,35.5,12.3,44.4,20
        c19.7,17,29.6,43.1,29.6,78.3c0,26.3-14.1,51.3-42.4,74.8c36,18.2,54,52,54,101.5c0,38.7-12.7,67.4-38,86.2
        c-25.3,18.8-63.2,29.1-113.4,31h-165.4l-5.8-48.2c5-6.6,15.7-13,31.9-19.1V640.5c-15.9-5.8-26.5-12.4-31.9-19.7l5.8-48.2H2859.4z
         M2867.5,635.9h-30.2v100.4h47.6c19.7,0,34.8-5,45.3-15.1c10.4-10.1,15.7-22.3,15.7-36.8s-3.7-25.4-11-32.8
        c-7.4-7.3-15.9-11.8-25.5-13.3C2899.6,636.7,2885.7,635.9,2867.5,635.9z M2889,799.5h-51.6v110.2h40c26.3,0,46.2-3.9,59.8-11.6
        c13.5-7.7,20.3-21.7,20.3-41.8c0-20.1-5.3-34.6-16-43.5C2930.9,804,2913.4,799.5,2889,799.5z"/>
    </g>
  </g>
</svg>
